<svg xmlns="http://www.w3.org/2000/svg" viewBox="0 0 100 100" width="25px" height="25px">
  <path d="M80.882,50.35c0.146-1.311,0.218-2.429,0.218-3.352c0-4.76-0.801-4.784-3.886-4.784H58.879    c10.094-17.217-9.851-19.082-11.123-30.358c0-2.842,1.239-5.173,2.259-8.476c-6.436,1.7-11.512,8.136-11.512,14.96    c0.172,13.061,16.953,12.026,13.163,23.873c0,0-13.576,0-13.576,0c2.607-7.1-8.954-9.828-9.18-15.082c0-1.7,0.243-3.109,0.777-5.1    c-3.133,1.239-6.873,4.857-6.873,8.937c0,6.484,7.747,7.116,8.937,11.245H7.271c-3.084,0-3.886,0.024-3.886,4.784    c0,4.76,1.87,14.887,6.873,26.958s10.783,17.389,14.863,20.935c1.217,0.895,2.869,1.803,4.687,1.724c0,0,24.869,0,24.869,0    c1.813,0.071,3.479-0.817,4.687-1.725c2.186-1.894,4.857-4.323,7.626-7.99c8.063,3.491,18.719,2.338,24.529-4.323    C101.829,71.444,95.596,53.063,80.882,50.35z M76.754,81.145c-2.089,0-3.789-0.291-5.367-1.02    c3.459-6.57,6.685-15.989,8.087-22.076C92.644,60.743,92.007,80.823,76.754,81.145z" fill="black"/>
</svg>